<?xml version="1.0" encoding="UTF-8" standalone="no"?>
<svg xmlns:dc="http://purl.org/dc/elements/1.1/" xmlns:cc="http://creativecommons.org/ns#" xmlns:rdf="http://www.w3.org/1999/02/22-rdf-syntax-ns#" xmlns:svg="http://www.w3.org/2000/svg" xmlns="http://www.w3.org/2000/svg" xmlns:xlink="http://www.w3.org/1999/xlink" xmlns:sodipodi="http://sodipodi.sourceforge.net/DTD/sodipodi-0.dtd" xmlns:inkscape="http://www.inkscape.org/namespaces/inkscape" width="907.256mm" height="1173.96mm" viewBox="0 0 3429 4437" version="1.2" id="svg3089" inkscape:version="0.48.4 r9939" sodipodi:docname="Miriams_Dress_201512151.svg">
  <sodipodi:namedview pagecolor="#ffffff" bordercolor="#666666" borderopacity="1" objecttolerance="10" gridtolerance="10" guidetolerance="10" inkscape:pageopacity="0" inkscape:pageshadow="2" inkscape:window-width="640" inkscape:window-height="480" id="namedview3151" showgrid="false" inkscape:zoom="0.5715" inkscape:cx="1607" inkscape:cy="1622" inkscape:current-layer="svg3089" />
  <metadata id="metadata3153">
    <rdf:RDF>
      <cc:Work rdf:about="">
        <dc:format>image/svg+xml</dc:format>
        <dc:type rdf:resource="http://purl.org/dc/dcmitype/StillImage" />
      </cc:Work>
    </rdf:RDF>
  </metadata>
  <title id="title3091">Valentina. Pattern layout</title>
  <defs id="defs3093" />
  <g fill="none" stroke="black" stroke-width="1" fill-rule="evenodd" stroke-linecap="square" stroke-linejoin="bevel" id="g3095">
    <g fill="none" stroke="#000000" stroke-opacity="1" stroke-width="1.51181" stroke-linecap="round" stroke-linejoin="round" transform="matrix(1,0,0,1,0,0)" font-family="Arial" font-size="10.6667" font-weight="400" font-style="normal" id="g3097" />
    <g fill="none" stroke="#000000" stroke-opacity="1" stroke-width="1.51181" stroke-linecap="round" stroke-linejoin="round" transform="matrix(1,0,0,1,0,0)" font-family="Arial" font-size="10.6667" font-weight="400" font-style="normal" id="g3099" />
    <g fill="none" stroke="#000000" stroke-opacity="1" stroke-width="1.51181" stroke-linecap="round" stroke-linejoin="round" transform="matrix(1,0,0,1,0,0)" font-family="Arial" font-size="10.6667" font-weight="400" font-style="normal" id="g3101" />
    <g fill="none" stroke="#000000" stroke-opacity="1" stroke-width="1" stroke-linecap="square" stroke-linejoin="bevel" transform="matrix(1,0,0,1,0,0)" font-family="Arial" font-size="10.6667" font-weight="400" font-style="normal" id="g3103">
      <path vector-effect="none" fill-rule="nonzero" d="M3272.41,75.5906 L3272.41,92.5906 L3272.41,124.591 L3271.41,157.591 L3270.41,189.591 L3268.41,221.591 L3266.41,252.591 L3264.41,283.591 L3261.41,313.591 L3259.41,343.591 L3255.41,373.591 L3251.41,402.591 L3247.41,431.591 L3243.41,460.591 L3238.41,488.591 L3233.41,516.591 L3228.41,544.591 L3222.41,572.591 L3216.41,599.591 L3209.41,626.591 L3203.41,653.591 L3192.41,692.591 L3176.41,745.591 L3159.41,796.591 L3141.41,847.591 L3122.41,897.591 L3101.41,946.591 L3080.41,995.591 L3057.41,1044.59 L3033.41,1093.59 L3007.41,1141.59 L2981.41,1189.59 L2953.41,1238.59 L2925.41,1286.59 L2895.41,1335.59 L2864.41,1384.59 L2833.41,1433.59 L2800.41,1483.59 L2766.41,1534.59 L2714.41,1610.59 L2641.41,1716.59 L2603.41,1770.59 L1186.41,924.591 L1212.41,900.591 L1263.41,853.591 L1300.41,818.591 L1324.41,795.591 L1347.41,772.591 L1369.41,748.591 L1391.41,725.591 L1412.41,702.591 L1433.41,679.591 L1452.41,655.591 L1471.41,632.591 L1489.41,608.591 L1507.41,584.591 L1524.41,559.591 L1539.41,534.591 L1555.41,509.591 L1569.41,483.591 L1582.41,457.591 L1595.41,431.591 L1607.41,403.591 L1618.41,376.591 L1628.41,347.591 L1637.41,318.591 L1645.41,288.591 L1652.41,258.591 L1658.41,227.591 L1663.41,194.591 L1668.41,161.591 L1671.41,128.591 L1673.41,93.5906 L1674.41,75.5906 L3272.41,75.5906 M3348.41,75.5906 L3348.41,92.5906 L3347.41,126.591 L3346.41,159.591 L3345.41,192.591 L3344.41,225.591 L3342.41,257.591 L3339.41,289.591 L3337.41,320.591 L3334.41,351.591 L3330.41,382.591 L3326.41,412.591 L3322.41,442.591 L3318.41,472.591 L3313.41,501.591 L3307.41,530.591 L3302.41,559.591 L3296.41,588.591 L3290.41,616.591 L3283.41,644.591 L3276.41,672.591 L3265.41,713.591 L3248.41,767.591 L3231.41,820.591 L3212.41,873.591 L3192.41,925.591 L3171.41,976.591 L3148.41,1027.59 L3125.41,1077.59 L3100.41,1127.59 L3074.41,1177.59 L3047.41,1226.59 L3019.41,1276.59 L2990.41,1325.59 L2959.41,1375.59 L2928.41,1424.59 L2896.41,1474.59 L2863.41,1525.59 L2829.41,1576.59 L2776.41,1653.59 L2703.41,1759.59 L2625.41,1871.59 L1059.41,936.591 L1162.41,844.591 L1212.41,798.591 L1248.41,763.591 L1271.41,741.591 L1293.41,719.591 L1315.41,696.591 L1336.41,674.591 L1356.41,652.591 L1375.41,630.591 L1394.41,607.591 L1412.41,585.591 L1429.41,563.591 L1445.41,540.591 L1460.41,517.591 L1475.41,494.591 L1489.41,471.591 L1502.41,448.591 L1515.41,424.591 L1526.41,399.591 L1537.41,375.591 L1547.41,349.591 L1556.41,323.591 L1564.41,297.591 L1571.41,270.591 L1578.41,242.591 L1584.41,213.591 L1589.41,183.591 L1593.41,153.591 L1596.41,121.591 L1598.41,89.5906 L1598.41,75.5906" id="path3105" />
    </g>
    <g fill="none" stroke="#000000" stroke-opacity="1" stroke-width="1.51181" stroke-linecap="round" stroke-linejoin="round" transform="matrix(1,0,0,1,0,0)" font-family="Arial" font-size="10.6667" font-weight="400" font-style="normal" id="g3107" />
    <g fill="none" stroke="#000000" stroke-opacity="1" stroke-width="1.51181" stroke-linecap="round" stroke-linejoin="round" transform="matrix(1,0,0,1,0,0)" font-family="Arial" font-size="10.6667" font-weight="400" font-style="normal" id="g3109" />
    <g fill="none" stroke="#000000" stroke-opacity="1" stroke-width="1" stroke-linecap="square" stroke-linejoin="bevel" transform="matrix(1,0,0,1,0,0)" font-family="Arial" font-size="10.6667" font-weight="400" font-style="normal" id="g3111">
      <path vector-effect="none" fill-rule="nonzero" d="M632.366,2554.88 L1080.81,1214.23 L1797.35,1640.9 L1795.22,1645.42 L1782.82,1669.42 L1764.83,1702.96 L1743.76,1738.35 L1722.26,1774.65 L1698.09,1811.91 L1662.33,1869.13 L1611.82,1945.94 L1563.5,2020.45 L1530.77,2073.57 L1510.55,2107.16 L1492.51,2138.46 L1476.65,2167.46 L1470.26,2181.04 L1466.43,2189.18 L1459.67,2205.89 L1453.39,2223.94 L1448.92,2242.83 L1443.6,2263.54 L1438.76,2285.57 L1434.82,2308.03 L1431.79,2330.92 L1426.84,2367.27 L1420.88,2417.52 L1413.75,2493.74 L1409.55,2542.6 L1403.32,2544.09 L1391.3,2546.16 L1379.75,2549.57 L1367.77,2553.88 L1355.8,2558.19 L1343.87,2564.74 L1331.95,2571.29 L1320.03,2577.84 L1308.16,2586.62 L1296.29,2595.4 L1284.42,2604.18 L1273.03,2614.3 L1261.64,2624.41 L1250.73,2635.85 L1238.49,2647.78 L1227.58,2659.22 L1217.15,2672 L1206.29,2685.67 L1190.22,2705.74 L1169.41,2733.53 L1149.08,2762.64 L1130.56,2792.61 L1111.62,2823.48 L1094.9,2854.3 L1078.19,2885.11 L1070.53,2901.4 L1064.57,2914.07 L1051.8,2941.22 L1039.5,2969.69 L1027.64,2997.26 L1016.2,3023.93 L1005.23,3051.92 L994.695,3079.02 L984.584,3105.2 L975.804,3130.91 L967.449,3155.72 L960.85,3179.13 L954.252,3202.55 L948.93,3223.26 L944.94,3243.48 L940.896,3261.47 L939.939,3277.6 L938.768,3284.79 L602.175,3276.72 L601.696,3275.38 L601.589,3270.91 L600.152,3266.92 L598.715,3262.93 L595.468,3258.09 L592.646,3252.34 L587.111,3245.31 L576.997,3233.92 L565.979,3222.11 L552.246,3209.02 L537.183,3196.4 L521.215,3183.36 L503.916,3170.8 L484.808,3157.39 L466.604,3144.41 L446.644,3132.8 L427.11,3120.3 L406.725,3109.6 L388.149,3099.76 L378.195,3095.07 L632.366,2554.88 M561.895,2526.14 L1040.09,1101.13 L1895.97,1612.15 L1863.14,1679.59 L1850.31,1704.5 L1830.14,1740.32 L1808.64,1776.62 L1786.29,1814.73 L1762.13,1851.99 L1725.03,1909.68 L1675.43,1986.92 L1627.11,2061.43 L1594.8,2113.65 L1575.43,2145.42 L1558.24,2174.91 L1544.14,2202.54 L1539.03,2213.39 L1536.47,2218.82 L1530.51,2231.49 L1525.94,2245.91 L1521.41,2262.57 L1517.37,2280.56 L1512.9,2299.46 L1509.39,2321.02 L1505.88,2342.57 L1500.88,2376.69 L1495.77,2425.12 L1489.49,2499.53 L1479.6,2609.81 L1415.84,2618.49 L1408.7,2619.56 L1402.05,2621.95 L1394.49,2623.92 L1387.41,2627.22 L1379.01,2631 L1370.17,2635.69 L1360.91,2641.28 L1352.13,2648.2 L1342.44,2654.69 L1333.23,2662.52 L1323.6,2671.24 L1313.97,2679.97 L1303.91,2689.61 L1293.85,2699.24 L1284.27,2710.21 L1274.69,2721.17 L1264.68,2733.04 L1249.46,2751.3 L1230.41,2777.7 L1212.26,2804.53 L1194.59,2832.68 L1176.92,2860.84 L1161.06,2889.85 L1146.11,2919.28 L1139.3,2933.76 L1132.91,2947.33 L1120.57,2973.57 L1108.22,2999.81 L1096.78,3026.48 L1085.34,3053.14 L1075.22,3079.33 L1065.11,3105.52 L1056.76,3130.32 L1047.5,3154.7 L1039.57,3178.6 L1033.4,3201.11 L1027.17,3221.39 L1022.7,3240.29 L1019.08,3257.37 L1016.74,3271.74 L1015.25,3284.3 L1010.84,3361.8 L522.076,3350.65 L525.532,3289.28 L521.86,3285.34 L513.13,3275.71 L502.165,3266.13 L488.912,3254.37 L475.232,3243.51 L458.839,3231.38 L442.445,3219.24 L424.72,3207.59 L407.475,3197.26 L389.325,3186.51 L372.079,3176.19 L353.982,3167.67 L277.496,3130.58 L561.895,2526.14" id="path3113" />
    </g>
    <g fill="none" stroke="#000000" stroke-opacity="1" stroke-width="1.51181" stroke-linecap="round" stroke-linejoin="round" transform="matrix(1,0,0,1,0,0)" font-family="Arial" font-size="10.6667" font-weight="400" font-style="normal" id="g3115" />
    <g fill="none" stroke="#000000" stroke-opacity="1" stroke-width="1.51181" stroke-linecap="round" stroke-linejoin="round" transform="matrix(1,0,0,1,0,0)" font-family="Arial" font-size="10.6667" font-weight="400" font-style="normal" id="g3117" />
    <g fill="none" stroke="#000000" stroke-opacity="1" stroke-width="1" stroke-linecap="square" stroke-linejoin="bevel" transform="matrix(1,0,0,1,0,0)" font-family="Arial" font-size="10.6667" font-weight="400" font-style="normal" id="g3119">
      <path vector-effect="none" fill-rule="nonzero" d="M1751.45,3918.75 L1742.34,3912.59 L1722.73,3900.53 L1702.29,3887.91 L1681.3,3876.11 L1660.3,3864.32 L1639.57,3853.92 L1618.01,3842.96 L1597.54,3833.94 L1577.91,3825.49 L1558.54,3818.42 L1540.56,3811.09 L1523.12,3806.53 L1508.72,3802.83 L1495.42,3801.07 L1486.55,3799.9 L1481.56,3800.15 L1477.39,3800.95 L1473.23,3801.76 L1471.28,3802.85 L1277.2,3547.2 L1307.58,3525.49 L1313.16,3520.81 L1324.32,3511.46 L1336.6,3500.45 L1348.61,3488.05 L1361.74,3473.99 L1375.99,3458.28 L1389.98,3441.18 L1403.69,3422.69 L1417.97,3403.37 L1432.81,3383.23 L1447.64,3363.08 L1461.38,3340.99 L1475.95,3319.45 L1490.25,3296.53 L1504.55,3273.6 L1517.47,3250.95 L1523.92,3239.62 L1532.06,3225.81 L1546.95,3198.45 L1560.71,3172.75 L1574.48,3147.05 L1586.29,3122.45 L1596.72,3098.11 L1607.15,3073.77 L1616.19,3049.7 L1624.4,3025.08 L1632.61,3000.45 L1639.16,2974.7 L1644.33,2949.21 L1650.05,2922.9 L1654.68,2894.65 L1657.66,2865.27 L1661.19,2835.06 L1662.41,2818.98 L1701.02,2769.04 L1779.91,2670.28 L1834.75,2599.93 L1868.05,2556.06 L1897.17,2516.59 L1915.66,2489.26 L1926.31,2473.52 L1931.35,2466.07 L1934.15,2461.93 L1939.49,2452.26 L1947.65,2434.84 L1961.14,2407.75 L1974.4,2375.67 L1997.52,2320.08 L2031.36,2237.93 L2066.91,2149.7 L2094.54,2083.87 L2111.74,2042.39 L2129.21,2002.29 L2145.82,1965.23 L2162.41,1931.79 L2173.94,1909.4 L2181.51,1896.42 L2185.44,1890.62 L2199.54,1896.54 L2229.68,1910.89 L2262.56,1928.31 L2297.67,1946.02 L2335.52,1966.8 L2375.04,1988.7 L2416.21,2011.73 L2459.86,2036.43 L2503.78,2062.52 L2548.8,2090.57 L2595.21,2118.34 L2641.88,2147.5 L2688.83,2178.05 L2736.6,2209.16 L2784.37,2240.28 L2831.58,2272.21 L2854.77,2287.9 L1751.45,3918.75 M1708.87,3981.7 L1700.59,3976.09 L1683.19,3964.33 L1663.85,3953.66 L1645.07,3942.16 L1624.9,3930.92 L1604.99,3921.08 L1585.92,3911.8 L1566.84,3902.52 L1548.87,3895.18 L1531.72,3888.41 L1517.05,3883.32 L1504.04,3879.35 L1493.52,3877.06 L1491.3,3876.76 L1446.79,3896.15 L1171.62,3533.72 L1262.52,3463.61 L1266.98,3460.59 L1275.06,3453.99 L1283.71,3446.56 L1294.6,3435.82 L1305.78,3422.86 L1318.36,3409.63 L1330.39,3393.62 L1343.81,3377.35 L1357.53,3358.86 L1371.25,3340.37 L1385.26,3319.67 L1398.7,3299.79 L1412.44,3277.69 L1426.45,3256.99 L1438.8,3235.16 L1452.55,3213.06 L1458.44,3202.56 L1466.58,3188.75 L1480.9,3162.22 L1494.11,3137.35 L1506.75,3113.31 L1517.45,3090.36 L1528.14,3067.41 L1536.89,3045.56 L1545.64,3023.71 L1553,3002.12 L1559.53,2979.98 L1565.23,2957.28 L1571.49,2933.74 L1575.53,2909.92 L1579.87,2883.88 L1583.38,2857.27 L1585.79,2828.72 L1588.55,2790.74 L1641.71,2722.87 L1721.15,2623.29 L1775.43,2553.76 L1807.62,2511.55 L1836.17,2472.91 L1853.54,2447.23 L1863.07,2433.15 L1866.72,2425.97 L1868.4,2423.48 L1872.06,2416.3 L1879.36,2401.92 L1891.74,2376.49 L1905.26,2345.8 L1927.26,2291.86 L1961.66,2208.89 L1997.21,2120.65 L2024.01,2054.27 L2041.77,2011.96 L2059.8,1971.03 L2077.54,1932.32 L2095.25,1897.22 L2107.89,1873.17 L2116.59,1858.53 L2154.48,1793.61 L2231.07,1828.52 L2262.86,1843.99 L2297.13,1861.15 L2333.07,1879.42 L2371.75,1900.76 L2412.65,1922.39 L2454.09,1946.81 L2497.74,1971.51 L2542.49,1998.16 L2588.07,2025.38 L2634.75,2054.54 L2682.25,2084.26 L2729.75,2113.98 L2777.53,2145.1 L2826.13,2176.77 L2874.16,2209.27 L2896.8,2225.79" id="path3121" />
    </g>
    <g fill="none" stroke="#000000" stroke-opacity="1" stroke-width="1.51181" stroke-linecap="round" stroke-linejoin="round" transform="matrix(1,0,0,1,0,0)" font-family="Arial" font-size="10.6667" font-weight="400" font-style="normal" id="g3123" />
    <g fill="none" stroke="#000000" stroke-opacity="1" stroke-width="1.51181" stroke-linecap="round" stroke-linejoin="round" transform="matrix(1,0,0,1,0,0)" font-family="Arial" font-size="10.6667" font-weight="400" font-style="normal" id="g3125" />
    <g fill="none" stroke="#000000" stroke-opacity="1" stroke-width="1" stroke-linecap="square" stroke-linejoin="bevel" transform="matrix(1,0,0,1,0,0)" font-family="Arial" font-size="10.6667" font-weight="400" font-style="normal" id="g3127">
      <path vector-effect="none" fill-rule="nonzero" d="M1964.91,4083.62 L1966.86,4082.52 L1972.71,4079.23 L1979.68,4074.29 L1989.44,4065.2 L2000.33,4054.46 L2011.52,4041.5 L2022.43,4027.15 L2033.64,4010.58 L2045.41,3993.19 L2058.29,3974.14 L2070.91,3953.7 L2090.28,3919.72 L2117.52,3870.53 L2146.73,3816.65 L2192.8,3730.7 L2243.09,3636.74 L2279.02,3572.92 L2316.08,3507.44 L2344.71,3457.99 L2364.9,3424.56 L2384.54,3391.97 L2404.74,3358.55 L2426.59,3326.24 L2447.05,3294.21 L2458.26,3277.64 L2466.93,3266.61 L2483.18,3242.59 L2501.09,3219.69 L2518.73,3195.4 L2547.26,3160.37 L2585.85,3114.04 L2625.27,3068.27 L2664.12,3023.32 L2722.55,2956.6 L2777.6,2894.84 L2811.71,2855.14 L2841.92,2817.62 L2863.46,2791.14 L2876.05,2774.31 L2887.26,2757.74 L2897.91,2742.01 L2905.78,2726.81 L2914.47,2712.16 L2919.83,2698.89 L2925.19,2685.61 L2928.6,2673.43 L2929.21,2665.39 L2929.53,2659.57 L2929.82,2657.35 L3126.2,2574.09 L3130.76,2597.7 L3140.38,2651.29 L3149.41,2709.32 L3158.69,2772.35 L3165.29,2821.48 L3168.95,2855.35 L3172.04,2890.04 L3174.57,2925.56 L3177.1,2961.07 L3178.25,2996.86 L3179.66,3034.04 L3179.41,3070.09 L3178.87,3108.36 L3178.07,3145.25 L3175.31,3183.22 L3171.73,3220.64 L3167.32,3257.5 L3162.35,3295.19 L3155.16,3332.58 L3147.15,3369.42 L3138.3,3405.69 L3130.63,3433.1 L3124.68,3450.81 L3118.74,3468.52 L3112.79,3486.23 L3106.02,3503.38 L3099.24,3520.53 L3091.08,3537.95 L3083.48,3554.54 L3075.32,3571.95 L3066.89,3587.98 L3057.07,3604.28 L3047.81,3619.75 L3038,3636.05 L3027.35,3651.78 L3022.31,3659.24 L3014.75,3668.62 L3001.04,3687.11 L2987.32,3705.6 L2972.78,3723.53 L2957.4,3740.89 L2942.03,3758.26 L2925.83,3775.07 L2909.63,3791.88 L2893.43,3808.69 L2875.84,3825.77 L2859.37,3841.19 L2841.51,3856.87 L2823.66,3872.56 L2804.97,3887.69 L2777.64,3910.25 L2740,3939.11 L2701.53,3967.42 L2662.53,3992.95 L2622.96,4019.31 L2582.86,4042.89 L2542.76,4066.47 L2502.39,4088.66 L2463.15,4109.19 L2423.07,4129.17 L2382.73,4147.75 L2344.34,4165.24 L2305.67,4181.34 L2267.57,4196.62 L2230.59,4210.23 L2195.56,4222.75 L2160.26,4233.89 L2126.35,4244.75 L2094.95,4253.69 L2064.1,4261.8 L2035.77,4267.99 L2008.83,4273.9 L1983.56,4277.34 L1960.52,4281.06 L1939.98,4282.87 L1930.55,4282.53 L1964.91,4083.62 M1897.02,4034.06 L1929.59,4016.26 L1930.42,4016.82 L1932.93,4014.89 L1937.12,4010.48 L1944.38,4003.32 L1951.93,3993.94 L1961.16,3982.08 L1972.08,3967.73 L1982.73,3951.99 L1993.66,3934.04 L2005.72,3914.43 L2024.8,3882.66 L2051.48,3834.31 L2080.13,3781.25 L2126.76,3694.48 L2176.48,3601.35 L2212.15,3536.13 L2249.77,3469.82 L2278.96,3419.54 L2299.71,3385.29 L2319.91,3351.87 L2341.5,3318.18 L2363.08,3284.49 L2384.93,3252.18 L2396.14,3235.62 L2404.55,3223.19 L2422.75,3198.08 L2440.38,3173.79 L2459.41,3149.24 L2488.5,3113.38 L2527.38,3064.83 L2567.36,3018.23 L2607.61,2973.01 L2666.3,2907.68 L2720.53,2845.36 L2753.51,2807.31 L2783.16,2770.63 L2802.75,2745.24 L2814.23,2730.07 L2824.31,2715.16 L2833.28,2701.91 L2840.29,2689.75 L2846.19,2679.25 L2850.14,2669.85 L2852.4,2662.93 L2854.38,2658.23 L2854.11,2656.84 L2853.89,2607.19 L3182.68,2467.42 L3205.18,2584.06 L3215.07,2639.04 L3224.37,2698.46 L3233.65,2761.48 L3239.96,2812.84 L3243.88,2848.09 L3246.97,2882.78 L3249.77,2919.69 L3252.57,2956.6 L3253.42,2994.6 L3254.28,3032.6 L3255.13,3070.61 L3254.86,3110.27 L3252.93,3148.81 L3250.44,3188.17 L3247.4,3228.37 L3242.69,3267.44 L3236.6,3306.79 L3229.95,3346.96 L3221.64,3386.01 L3211.94,3425.33 L3203.15,3454.39 L3196.91,3474.32 L3190.41,3492.86 L3183.34,3512.22 L3176.27,3531.59 L3168.38,3550.4 L3160.49,3569.2 L3151.76,3587.45 L3143.04,3605.7 L3132.93,3624.21 L3123.38,3641.9 L3112.44,3659.85 L3100.68,3677.24 L3089.47,3693.81 L3083.3,3702.92 L3076.02,3713.69 L3061.74,3733.01 L3046.08,3752.59 L3030.41,3772.18 L3014.48,3790.37 L2997.99,3809.4 L2980.67,3827.86 L2963.9,3845.5 L2945.75,3863.41 L2928.17,3880.48 L2909.75,3897 L2891.33,3913.52 L2872.91,3930.03 L2853.67,3945.99 L2824.38,3969.64 L2784.79,3999.6 L2744.94,4028.18 L2704.25,4056.19 L2663.3,4082.82 L2622.08,4108.05 L2580.03,4132.73 L2538.28,4155.19 L2497.08,4176.82 L2455.62,4197.06 L2414.71,4216.48 L2373.54,4234.5 L2334.32,4251.43 L2294.83,4266.97 L2256.46,4280.86 L2219.48,4294.47 L2183.62,4306.43 L2148.32,4317.57 L2114.14,4327.04 L2081.91,4335.42 L2051.63,4342.7 L2022.47,4348.33 L1994.43,4352.3 L1969.16,4355.73 L1944.46,4358.34 L1840.71,4361.79 L1897.02,4034.06" id="path3129" />
    </g>
    <g fill="none" stroke="#000000" stroke-opacity="1" stroke-width="1.51181" stroke-linecap="round" stroke-linejoin="round" transform="matrix(1,0,0,1,0,0)" font-family="Arial" font-size="10.6667" font-weight="400" font-style="normal" id="g3131" />
    <g fill="none" stroke="#000000" stroke-opacity="1" stroke-width="1.51181" stroke-linecap="round" stroke-linejoin="round" transform="matrix(1,0,0,1,0,0)" font-family="Arial" font-size="10.6667" font-weight="400" font-style="normal" id="g3133" />
    <g fill="none" stroke="#000000" stroke-opacity="1" stroke-width="1" stroke-linecap="square" stroke-linejoin="bevel" transform="matrix(1,0,0,1,0,0)" font-family="Arial" font-size="10.6667" font-weight="400" font-style="normal" id="g3135">
      <path vector-effect="none" fill-rule="nonzero" d="M1247.04,302.441 L1241.91,321.774 L1233.52,349.55 L1226.97,366.437 L1221.14,384.547 L1214.6,401.434 L1208.31,417.354 L1201.05,433.018 L1194.77,448.939 L1186.54,464.347 L1179.54,479.044 L1171.58,493.486 L1162.9,506.704 L1155.19,520.179 L1146.52,533.398 L1137.13,545.393 L1127.75,557.389 L1118.36,569.385 L1108.97,581.381 L1098.88,592.154 L1087.81,602.67 L1077.97,612.477 L1066.91,622.994 L1055.14,632.288 L1044.59,640.871 L1031.85,649.909 L1020.33,658.236 L1007.84,666.308 L995.359,674.379 L982.164,681.227 L968.714,689.042 L955.519,695.891 L948.438,699.187 L918.186,504.955 L919.409,504.245 L923.787,503.336 L927.456,501.205 L931.124,499.074 L935.305,495.009 L940.452,491.201 L946.368,484.492 L955.755,472.496 L965.397,459.534 L975.808,443.672 L985.508,426.587 L995.465,408.535 L1004.71,389.26 L1014.47,368.052 L1023.97,347.811 L1031.8,326.091 L1040.59,304.627 L1047.45,282.651 L1053.79,262.608 L1056.61,251.975 L1247.04,302.441 M1339.97,248.446 L1314.16,341.953 L1305.25,371.663 L1299.16,390.739 L1292.1,409.56 L1285.04,428.38 L1278.24,446.233 L1270.48,463.831 L1262.71,481.428 L1254.23,497.803 L1245.75,514.178 L1237.28,530.552 L1227.83,546.671 L1217.68,561.566 L1208.49,576.718 L1197.62,590.391 L1187.73,604.32 L1176.86,617.993 L1165.03,631.41 L1153.45,643.86 L1141.88,656.31 L1129.33,668.504 L1116.08,679.475 L1103.8,690.702 L1090.8,700.707 L1076.58,711.422 L1062.62,721.17 L1048.91,729.951 L1033.98,739.444 L1019.31,747.969 L1003.92,755.272 L989.248,763.797 L889.863,810.909 L831.059,439.45 L892.049,431.819 L895.263,427.499 L903.171,417.18 L910.623,404.672 L919.812,389.52 L928.033,374.112 L937.023,355.804 L946.013,337.496 L954.293,317.965 L961.349,299.145 L968.662,279.358 L975.719,260.538 L980.843,241.205 L1003.58,159.298 L1339.97,248.446" id="path3137" />
    </g>
    <g fill="none" stroke="#000000" stroke-opacity="1" stroke-width="1.51181" stroke-linecap="round" stroke-linejoin="round" transform="matrix(1,0,0,1,0,0)" font-family="Arial" font-size="10.6667" font-weight="400" font-style="normal" id="g3139" />
    <g fill="none" stroke="#000000" stroke-opacity="1" stroke-width="1.51181" stroke-linecap="round" stroke-linejoin="round" transform="matrix(1,0,0,1,0,0)" font-family="Arial" font-size="10.6667" font-weight="400" font-style="normal" id="g3141" />
    <g fill="none" stroke="#000000" stroke-opacity="1" stroke-width="1" stroke-linecap="square" stroke-linejoin="bevel" transform="matrix(1,0,0,1,0,0)" font-family="Arial" font-size="10.6667" font-weight="400" font-style="normal" id="g3143">
      <path vector-effect="none" fill-rule="nonzero" d="M326.735,915.893 L333.201,906.994 L345.913,887.8 L359.212,867.797 L371.703,847.206 L384.193,826.615 L395.287,806.245 L406.968,785.066 L416.665,764.917 L425.774,745.577 L433.486,726.459 L441.419,708.737 L446.559,691.457 L450.744,677.192 L452.944,663.958 L454.411,655.134 L454.336,650.135 L453.672,645.945 L453.009,641.754 L451.979,639.769 L612.284,526.335 L616.037,536.48 L620.384,559.417 L623.259,577.575 L624.44,589.559 L626.43,602.13 L626.436,615.732 L627.838,629.112 L627.843,642.713 L627.261,657.124 L626.678,671.534 L624.699,686.166 L623.529,701.385 L620.962,716.826 L617.807,733.075 L614.652,749.325 L611.497,765.574 L606.945,782.045 L601.806,799.325 L596.666,816.604 L590.718,833.296 L583.593,851.606 L576.469,869.915 L568.536,887.637 L560.015,906.168 L550.906,925.508 L540.179,943.672 L529.673,963.233 L518.359,982.206 L505.647,1001.4 L492.348,1021.4 L486.103,1031.7 L326.735,915.893 M265.253,871.216 L271.132,863.127 L283.477,846.138 L294.791,827.165 L306.915,808.78 L318.818,788.998 L329.323,769.437 L339.241,750.685 L349.159,731.933 L357.092,714.211 L364.438,697.298 L370.019,682.812 L374.426,669.944 L377.068,659.503 L377.435,657.297 L359.551,612.162 L657.008,401.845 L688.375,518.585 L694.782,545.491 L698.099,566.444 L699.723,581.221 L701.346,595.998 L702.382,611.584 L702.829,627.979 L702.468,643.786 L702.916,660.181 L701.967,676.798 L700.43,694.223 L698.084,711.06 L695.959,729.294 L693.025,746.941 L688.694,764.808 L685.173,783.264 L680.254,801.94 L674.748,821.425 L668.433,840.323 L661.53,860.029 L654.626,879.736 L646.326,899.664 L637.218,919.003 L628.33,939.74 L617.824,959.301 L606.73,979.671 L595.049,1000.85 L582.559,1021.44 L569.48,1042.84 L555.005,1064.46 L546.775,1075.79" id="path3145" />
    </g>
    <g fill="none" stroke="#000000" stroke-opacity="1" stroke-width="1.51181" stroke-linecap="round" stroke-linejoin="round" transform="matrix(1,0,0,1,0,0)" font-family="Arial" font-size="10.6667" font-weight="400" font-style="normal" id="g3147" />
    <g fill="none" stroke="#000000" stroke-opacity="1" stroke-width="1.51181" stroke-linecap="round" stroke-linejoin="round" transform="matrix(1,0,0,1,0,0)" font-family="Arial" font-size="10.6667" font-weight="400" font-style="normal" id="g3149" />
  </g>
  <path style="fill:none;stroke:#000000;stroke-width:0.988px;stroke-linecap:butt;stroke-linejoin:miter;stroke-opacity:1" d="M 1737,3913 L 2854,2287" id="path3155" inkscape:connector-curvature="0" />
  <text id="text3409" y="0" x="0" transform="translate(110.1,-369.6)">
    <textPath id="textPath3411" dy="15" startOffset="50%" xlink:href="#path3155" style="font-size:50px;font-style:normal;font-weight:normal;text-align:center;text-anchor:middle;fill:#000000;fill-opacity:1;stroke:none">55.67 cm</textPath>
  </text>
</svg>
